# xmcd
#
# Track frame offsets:
#	150
#	1759
#	13274
#	22438
#	28692
#	41427
#	55832
#	74417
#	85458
#	98162
#	110598
#	124948
#	136125
#
# Disc length: 2105 seconds
#
# Revision: 1
# Processed by: cddbd v1.5.2PL0 Copyright (c) Steve Scherf et al.
# Submitted via: audiograbber 1.83.01
#
DISCID=b008370d
DTITLE=The Ascensions - The Ascensions @ The Gibson
DYEAR=2002
DGENRE=Gospel
TTITLE0=Intro
TTITLE1=Oh What A Joy
TTITLE2=He's Still Working Miracles
TTITLE3=Group Intros
TTITLE4=Carried Away
TTITLE5=At The End Of My Hope
TTITLE6=God Sent Angels
TTITLE7=Speaking
TTITLE8=By Faith I Believe
TTITLE9=Just A Little Talk
TTITLE10=His Blood Still Covers Me
TTITLE11=Speaking
TTITLE12=What Happened To The Cross
EXTD=
EXTT0=
EXTT1=
EXTT2=
EXTT3=
EXTT4=
EXTT5=
EXTT6=
EXTT7=
EXTT8=
EXTT9=
EXTT10=
EXTT11=
EXTT12=
PLAYORDER=
